<?xml version="1.0" encoding="UTF-8"?><svg id="Layer_1" xmlns="http://www.w3.org/2000/svg" viewBox="0 0 162.59 140.88"><path d="M161.83,81.36c-5.34-1.33-13.89-1.77-21.94-1.85,0-.16,0-.33,0-.49,0-1.97-.05-3.89-.15-5.75,7.2-1.01,14.1-1.82,17.49-1.82.55,0,1-.45,1-1s-.45-1-1-1c-3.49,0-10.41.81-17.62,1.81-.26-3.63-.74-7.05-1.48-10.3,6.86-3.07,13.62-5.74,17.46-6.3.55-.08.93-.59.85-1.14-.08-.54-.58-.93-1.13-.84-3.99.58-10.78,3.23-17.66,6.3-.98-3.72-2.31-7.19-4.08-10.44,5.39-4.38,10.11-8.17,11.92-9.53.44-.33.53-.95.2-1.4-.33-.44-.96-.53-1.4-.2-1.82,1.36-6.44,5.07-11.72,9.37-1.13-1.89-2.42-3.7-3.88-5.44,5.43-5.32,10-9.5,11.59-10.19.51-.22.74-.81.53-1.31-.22-.51-.81-.74-1.32-.52-1.85.8-6.65,5.15-12.13,10.51-1.89-2.08-4.05-4.06-6.49-5.95,5.28-7.13,9.74-12.88,11.18-14.06.43-.35.49-.98.14-1.4-.35-.43-.98-.49-1.41-.14-1.6,1.31-6.27,7.35-11.5,14.4-2.49-1.79-5.25-3.51-8.31-5.15,2.75-6.64,4.95-11.87,5.56-13.1.24-.5.04-1.1-.45-1.34-.5-.25-1.1-.05-1.34.45-.63,1.26-2.81,6.45-5.55,13.05-.13-.06-.26-.13-.4-.2-3.01-1.52-6.06-2.72-9.11-3.63,1.93-5.71,4.05-10.78,6.31-14.27.3-.46.17-1.08-.29-1.38-.47-.3-1.09-.17-1.39.29-2.38,3.67-4.58,8.93-6.57,14.82-2.31-.61-4.63-1.06-6.93-1.37,1.29-10.29,2.42-18.1,3.01-19.44.22-.51-.01-1.1-.51-1.32-.51-.22-1.1,0-1.32.51-.68,1.54-1.87,9.66-3.18,20.03-2.14-.21-4.27-.3-6.37-.28.14-9.2.24-16.26.24-17.24,0-.56-.45-1-1-1s-1,.44-1,1c0,.96-.11,8.05-.25,17.28-2.97.11-5.88.43-8.72.92-1.12-10.01-1.93-17.53-1.94-18.2,0-.56-.45-1-1-1s-1,.44-1,1c0,.72.85,8.52,1.97,18.57-2.25.45-4.44,1-6.56,1.64-2.23-8.09-4.54-15.91-6.52-21.54-.18-.52-.75-.79-1.27-.61-.52.18-.8.75-.61,1.28,1.97,5.6,4.27,13.39,6.5,21.46-3.14,1.03-6.11,2.23-8.86,3.53l-9.47-17.98c-.26-.49-.86-.67-1.35-.42-.49.26-.68.87-.42,1.35l9.45,17.93c-1.82.92-3.54,1.89-5.13,2.88-4.81-6.79-8.65-12.08-9.44-12.86-.4-.39-1.03-.39-1.42.01-.38.39-.38,1.03.02,1.41.71.69,4.39,5.78,9.16,12.52-2.38,1.58-4.53,3.43-6.45,5.47-6.9-6.76-12.77-12.19-14.64-13.04-.5-.23-1.09-.01-1.32.49s-.01,1.09.49,1.32c1.62.74,7.26,5.98,14.13,12.72-1.4,1.62-2.66,3.34-3.8,5.15-5.15-3.52-9.76-6.35-12.29-7.13-.53-.16-1.09.13-1.26.66-.16.53.14,1.09.67,1.25,2.37.73,6.83,3.48,11.84,6.92h0c-1.68,2.93-3.07,6.04-4.18,9.23-6.17-2.68-11.55-4.78-14.1-5.21-.55-.09-1.06.27-1.15.82-.1.54.27,1.06.82,1.15,2.42.41,7.7,2.49,13.8,5.14-.82,2.61-1.45,5.26-1.91,7.9-6.66-1.18-13.21-2.03-18.33-2.03-.56,0-1,.45-1,1s.44,1,1,1c4.96,0,11.42.85,18.01,2.03-.33,2.26-.53,4.5-.62,6.69-5.34.04-11.64.38-19.06,1.16-.55.06-.95.55-.89,1.1.06.55.54.94,1.1.89,7.33-.77,13.56-1.1,18.81-1.14-.01.15-.01.3-.01.45,0,3.28.24,6.36.74,9.3-8.1,1.3-17.12,3.19-23.6,5.77-.51.21-.76.79-.56,1.3.16.4.53.63.93.63.12,0,.25-.02.37-.07,6.28-2.5,15.19-4.35,23.23-5.64.28,1.3.61,2.58.99,3.82-5.05,1.73-10.86,4.51-16.62,8.95-.44.34-.52.97-.18,1.4.2.26.49.39.79.39.22,0,.43-.06.61-.2,5.52-4.26,11.14-6.93,16.04-8.6.85,2.36,1.9,4.62,3.15,6.82-5.91,3.71-12.68,8.35-15.96,12.02-.37.41-.34,1.04.08,1.41.19.17.42.25.66.25.28,0,.55-.11.75-.33,3.1-3.47,9.7-7.98,15.51-11.62.86,1.36,1.8,2.71,2.83,4.03-1.6,1.56-3.17,3.35-4.57,5.32-.31.45-.21,1.08.24,1.4.18.12.38.18.58.18.31,0,.62-.15.82-.42,1.28-1.81,2.72-3.45,4.2-4.91,1.11,1.34,2.32,2.67,3.62,3.99-1.31,1.58-2.57,3.32-3.64,5.17-.28.48-.11,1.09.37,1.37.15.09.33.13.5.13.34,0,.68-.18.86-.5.97-1.69,2.13-3.29,3.35-4.76.58.57,1.19,1.14,1.81,1.7,1.29,1.17,2.71,2.27,4.23,3.29-2.18,3.74-4.59,8.33-7.2,13.95-.23.5-.01,1.09.49,1.32.13.07.28.1.42.1.38,0,.74-.22.91-.58,2.56-5.52,4.94-10.04,7.07-13.71,2.79,1.7,5.88,3.16,9.18,4.37-2.5,6.37-4.52,11.82-4.52,12.84,0,.54.43.96.97.98h.03c.53,0,.97-.44,1-.96.06-.88,1.92-5.87,4.42-12.2,2.73.91,5.58,1.64,8.5,2.21-.53,3.76-.97,7.86-1.27,12.27-.03.55.38,1.03.94,1.07h.06c.52,0,.96-.41,1-.93.29-4.34.72-8.37,1.25-12.06,2.81.47,5.67.78,8.54.92-.26,4.36-.43,8.31-.43,11.07,0,.55.45,1,1,1s1-.45,1-1c0-2.73.17-6.66.43-10.99,3.06.07,6.13-.04,9.14-.35.21,5.23.36,9.95.36,12.71,0,.55.45,1,1,1s1-.45,1-1c0-2.81-.15-7.62-.36-12.95,2.13-.28,4.23-.66,6.27-1.15.57-.14,1.15-.28,1.73-.45,1.32,6.28,2.56,12.12,3.16,14.77.1.47.52.78.97.78.08,0,.15,0,.23-.02.53-.13.87-.66.75-1.2-.6-2.66-1.85-8.57-3.18-14.89,2.26-.72,4.56-1.6,6.86-2.65,2.17,5.57,4.29,11.36,4.94,14.24.11.47.52.78.98.78.07,0,.15-.01.22-.02.54-.12.88-.66.75-1.2-.68-3.03-2.86-8.98-5.07-14.66,1.69-.82,3.37-1.74,5.02-2.74,2.52,5.48,5.25,11.61,6.05,14.01.14.42.53.69.95.69.1,0,.21-.02.31-.05.53-.18.81-.75.64-1.27-.84-2.53-3.67-8.87-6.24-14.45,2.24-1.44,4.43-3.03,6.5-4.78,2.33,2.79,4.78,5.85,5.83,7.62.19.32.52.49.86.49.17,0,.35-.04.51-.14.48-.28.63-.89.35-1.37-1.12-1.88-3.64-5.05-6.03-7.9,2.36-2.12,4.56-4.42,6.52-6.89,3.9,2.14,7.94,4.86,10.59,7.96.2.23.48.35.76.35.23,0,.47-.08.65-.24.42-.36.47-.99.12-1.41-2.78-3.26-6.89-6.07-10.87-8.29.94-1.28,1.81-2.6,2.62-3.97,6.76,1.26,14.78,3.56,20.57,7.77.18.13.39.2.59.2.31,0,.61-.15.81-.42.32-.44.23-1.07-.22-1.39-5.94-4.32-13.91-6.71-20.72-8.03,1.09-2.06,2-4.2,2.72-6.42,5.35.76,10.97,1.67,15.2,2.65.08.02.16.02.23.02.46,0,.87-.31.97-.77.13-.54-.21-1.08-.75-1.2-4.2-.97-9.76-1.88-15.07-2.63.61-2.3,1.02-4.68,1.18-7.14,7.97.07,16.4.5,21.54,1.78.08,0,.16.02.24.02.45,0,.86-.3.97-.75.14-.54-.19-1.08-.73-1.22ZM40.56,99.93c-.99-.7-1.93-1.53-2.79-2.49-.43-.49-.85-1.03-1.24-1.6-.9-1.33-1.64-2.86-2.14-4.65-.18-.63-.34-1.29-.45-1.98-.16-.92-.27-1.9-.3-2.94-.03-.65-.03-1.33,0-2.03.05-1.1.15-2.25.34-3.46.25-1.63.6-3.13,1.04-4.51.21-.69.45-1.34.71-1.97.66-1.61,1.45-3.04,2.35-4.31.43-.63.89-1.21,1.38-1.76,1.15-1.31,2.43-2.41,3.76-3.31.68-.46,1.39-.87,2.1-1.23,2.25-1.15,4.59-1.82,6.78-2.12,1.05-.14,2.06-.2,3.01-.18,1.17.01,2.25.13,3.18.34.95.21,1.76.51,2.37.87,2.32,1.37,4.81,3.61,6.82,6.85,2.39,3.85,4.11,9.11,4.11,16.01s-3.76,11.47-8.08,14.47c-1.48,1.03-3.02,1.85-4.5,2.47-.96.4-1.9.72-2.77.95-1.32.36-2.5.53-3.43.51-.83-.02-1.93-.11-3.2-.32-.78-.14-1.62-.32-2.49-.56-1.51-.42-3.13-1.03-4.69-1.88-.64-.35-1.26-.74-1.87-1.17ZM126.15,89.07c-.69,2.28-1.68,4.47-3.01,6.39-.46.68-.97,1.33-1.54,1.93-.16.18-.33.36-.52.54-.53.54-1.11,1.04-1.74,1.48-2.41,1.78-5.44,2.86-9.13,2.86-12.3,0-20.31-8.29-20.38-18.33-.04-6.15,1.83-14.05,5.96-19.16,1.41-1.74,3.09-3.16,5.05-4.07.32-.15.65-.29,1-.41h0c1.39-.51,2.92-.76,4.59-.7.49.02.98.05,1.47.12.8.08,1.59.23,2.37.42,1.43.34,2.81.85,4.12,1.49.65.31,1.28.66,1.89,1.04,1.86,1.14,3.55,2.55,5.02,4.13.47.51.92,1.03,1.34,1.58,1.23,1.55,2.24,3.23,3.01,4.96.29.63.54,1.27.75,1.9.5,1.47.81,2.95.91,4.4.04.38.05.76.05,1.13,0,.29,0,.59-.01.88-.06,1.78-.28,3.63-.69,5.46-.14.66-.31,1.31-.51,1.96Z"/><path d="M102,75.13c-2.48,0-5.91,2.93-5.9,7.15.01,3.93,2.14,7.12,5.41,7.11,3.27,0,6.43-3.21,6.42-7.15s-2.3-7.12-5.93-7.11Z"/><path d="M60.29,89.49c3.27,0,5.91-3.04,5.91-6.79s-2.64-6.78-5.91-6.78-5.91,3.45-5.91,7.2,2.65,6.37,5.91,6.37Z"/></svg>