<?xml version="1.0" encoding="UTF-8"?>
<svg id="Layer_1" xmlns="http://www.w3.org/2000/svg" version="1.1" viewBox="0 0 384 372">
  <!-- Generator: Adobe Illustrator 29.4.0, SVG Export Plug-In . SVG Version: 2.1.0 Build 152)  -->
  <defs>
    <style>
      .st0 {
        fill: #404040;
      }

      .st1 {
        fill: #fff;
      }
    </style>
  </defs>
  <g>
    <path d="M76.93,284.38c6.68-5.35,9.91-13.86,13.74-21.55,10.65-21.35,28.38-39.1,49.73-49.75,11.34-5.66,23.15-10.06,32.15-19.4,2.42-2.51,4.6-5.34,5.87-8.6,3.09-7.92-.6-20.81-4.44-28.05-2.62-4.95-3.91-8.05-8.39-15.54-2.26-3.79-4.75-7.96-7.05-11.73-8.79-14.43-17.82-28.71-27.33-42.68-8.43-12.39-17.08-25.11-27.61-35.85C80.82,27.97,52.91-5.05,27.79.99,2.68,7.04-2.9,102.39,1.75,159.14c2.05,24.99,7.21,49.72,13.95,73.84,2.85,10.21,6.23,20.26,9.05,30.46,2.49,8.98,8.66,16.94,16.75,21.57,10.07,5.76,25.23,7.1,34.92-.22.18-.13.35-.27.52-.4Z"/>
    <path d="M307.07,284.38c-6.68-5.35-9.91-13.86-13.74-21.55-10.65-21.35-28.38-39.1-49.73-49.75-11.34-5.66-23.15-10.06-32.15-19.4-2.42-2.51-4.6-5.34-5.87-8.6-3.09-7.92.6-20.81,4.44-28.05,2.62-4.95,3.91-8.05,8.39-15.54,2.26-3.79,4.75-7.96,7.05-11.73,8.79-14.43,17.82-28.71,27.33-42.68,8.43-12.39,17.08-25.11,27.61-35.85,22.79-23.26,50.7-56.28,75.82-50.23,25.12,6.05,30.7,101.4,26.05,158.14-2.05,24.99-7.21,49.72-13.95,73.84-2.85,10.21-6.23,20.26-9.05,30.46-2.49,8.98-8.66,16.94-16.75,21.57-10.07,5.76-25.23,7.1-34.92-.22-.18-.13-.35-.27-.52-.4Z"/>
    <path class="st0" d="M253.83,150.3s32.09-66.51,53.95-91.63c21.86-25.12,41.2-46.65,50.74-34.62,11.5,14.5,13.14,70.99,8.48,127.27s-18.31,98.27-18.31,98.27c0,0-19.06-56.5-51.15-74.17,0,0,14.34-6.56,8.84-10.7-3.2-2.41-19.08.61-23.73,2.93,0,0,15.95-9.58,12.48-13.85-4.13-5.09-21.31.22-27.83,3.48,0,0,12.31-12.79,9.22-16.76-5.07-6.52-22.71,9.79-22.71,9.79Z"/>
    <path class="st0" d="M130.17,150.3s-32.09-66.51-53.95-91.63C54.36,33.55,35.01,12.02,25.47,24.05c-11.5,14.5-13.14,70.99-8.48,127.27s18.31,98.27,18.31,98.27c0,0,19.06-56.5,51.15-74.17,0,0-14.34-6.56-8.84-10.7,3.2-2.41,19.08.61,23.73,2.93,0,0-15.95-9.58-12.48-13.85,4.13-5.09,21.31.22,27.83,3.48,0,0-12.31-12.79-9.22-16.76,5.07-6.52,22.71,9.79,22.71,9.79Z"/>
  </g>
  <g>
    <path class="st1" d="M157.69,338.5c4.53-10.48,1.85-45.86-13.51-65.81-19.61-25.45-54.4-24.74-72.98,1.95-18.59,26.69-16.65,72.81,13.82,89.35,30.35,16.48,59.06,6.02,72.67-25.5Z"/>
    <ellipse cx="133.87" cy="311.34" rx="15.01" ry="26.69"/>
    <path class="st1" d="M226.31,338.5c-4.53-10.48-1.85-45.86,13.51-65.81,19.61-25.45,54.4-24.74,72.98,1.95,18.59,26.69,16.65,72.81-13.82,89.35-30.35,16.48-59.06,6.02-72.67-25.5Z"/>
    <ellipse cx="250.13" cy="311.34" rx="15.01" ry="26.69"/>
    <path class="st0" d="M189.1,366.75c1.9.56,3.9.56,5.79,0,4.85-1.42,14.14-4.39,14.49-6.3.48-2.59-5.01-8.13-17.39-8.13-12.38,0-17.86,5.54-17.39,8.13.35,1.91,9.64,4.88,14.49,6.3Z"/>
  </g>
</svg>