<?xml version="1.0" encoding="UTF-8"?>
<svg id="Layer_1" xmlns="http://www.w3.org/2000/svg" xmlns:xlink="http://www.w3.org/1999/xlink" version="1.1" viewBox="0 0 176 124">
  <!-- Generator: Adobe Illustrator 29.4.0, SVG Export Plug-In . SVG Version: 2.1.0 Build 152)  -->
  <defs>
    <style>
      .st0 {
        fill: url(#linear-gradient1);
      }

      .st1 {
        fill: url(#linear-gradient);
      }
    </style>
    <linearGradient id="linear-gradient" x1="29.87" y1="40.48" x2="29.87" y2="112.72" gradientUnits="userSpaceOnUse">
      <stop offset=".39" stop-color="#000"/>
      <stop offset="1" stop-color="#333"/>
    </linearGradient>
    <linearGradient id="linear-gradient1" x1="146.13" y1="40.48" x2="146.13" y2="112.72" gradientUnits="userSpaceOnUse">
      <stop offset=".78" stop-color="#000"/>
      <stop offset="1" stop-color="#333"/>
    </linearGradient>
  </defs>
  <path class="st1" d="M56.92,46.07c1.27,10.4,2.75,16.48,2.03,30.03-.27,5.16-.71,10.9-.78,16.07-.06,4.11,1.32,7.74,1.49,11.85.14,3.28-.68,6.73-2.91,9.13s-6.05,3.46-8.94,1.91c-.04,3.98-3.03,7.74-6.9,8.68s-8.25-1.04-10.1-4.57c-3.88.71-7.93-.67-10.86-3.24s-3.6-6.1-5.41-9.37C4.61,88.65.34,65.77.07,45.29-.09,33.51,8.4,18.65,18.81,13.14c10.41-5.51,24.06-4.16,33.19,3.28,9.13,7.44,3.49,17.95,4.92,29.64Z"/>
  <path class="st0" d="M119.08,36.33c-1.27,10.4-2.75,16.48-2.03,30.03.27,5.16.71,10.9.78,16.07.06,4.11-1.32,7.74-1.49,11.85-.14,3.28.68,6.73,2.91,9.13s6.05,3.46,8.94,1.91c.04,3.98,3.03,7.74,6.9,8.68s8.25-1.04,10.1-4.57c3.88.71,7.93-.67,10.86-3.24s3.6-6.1,5.41-9.37c9.93-17.92,14.2-40.8,14.47-61.28.16-11.78-8.33-26.63-18.74-32.14-10.41-5.51-24.06-4.16-33.19,3.28-9.13,7.44-3.49,17.95-4.92,29.64Z"/>
</svg>